<svg width="340" height="291" viewBox="0 0 340 291" fill="none" xmlns="http://www.w3.org/2000/svg">
<path d="M156.93 144.129C159.814 135.254 126.261 112.834 108.543 107.077C90.8249 101.32 82.7781 110.224 79.8945 119.098C77.0109 127.973 78.2877 139.906 96.0059 145.663C113.724 151.42 154.046 153.003 156.93 144.129Z" fill="#FFCB1D"/>
<path d="M175 131C184.331 131 195.286 92.1617 195.286 73.5317C195.286 54.9017 184.331 50 175 50C165.669 50 154.714 54.9017 154.714 73.5317C154.714 92.1617 165.669 131 175 131Z" fill="#FFCB1D"/>
<path d="M186.168 134.629C193.717 140.114 225.408 115.132 236.359 100.06C247.309 84.9875 241.328 74.5832 233.779 69.0983C226.229 63.6134 214.486 61.1403 203.536 76.2123C192.585 91.2843 178.619 129.144 186.168 134.629Z" fill="#FFCB1D"/>
<path d="M156.93 155.871C154.046 146.997 113.724 148.58 96.0059 154.337C78.2877 160.094 77.0109 172.027 79.8945 180.902C82.7781 189.776 90.8249 198.68 108.543 192.923C126.261 187.166 159.814 164.746 156.93 155.871Z" fill="#FFCB1D"/>
<path d="M163.832 165.371C156.283 159.886 124.592 184.868 113.641 199.94C102.691 215.012 108.672 225.417 116.221 230.902C123.771 236.387 135.514 238.86 146.464 223.788C157.415 208.716 171.381 170.856 163.832 165.371Z" fill="#FFCB1D"/>
<path d="M163.832 134.629C171.381 129.144 157.415 91.2843 146.464 76.2123C135.514 61.1403 123.771 63.6134 116.221 69.0983C108.672 74.5832 102.691 84.9875 113.641 100.06C124.592 115.132 156.283 140.114 163.832 134.629Z" fill="#FFCB1D"/>
<path d="M175 169C165.669 169 154.714 207.838 154.714 226.468C154.714 245.098 165.669 250 175 250C184.331 250 195.286 245.098 195.286 226.468C195.286 207.838 184.331 169 175 169Z" fill="#FFCB1D"/>
<path d="M193.07 144.129C195.954 153.003 236.276 151.42 253.994 145.663C271.712 139.906 272.989 127.973 270.106 119.098C267.222 110.224 259.175 101.32 241.457 107.077C223.739 112.834 190.186 135.254 193.07 144.129Z" fill="#FFCB1D"/>
<path d="M193.07 155.871C190.186 164.746 223.739 187.166 241.457 192.923C259.175 198.68 267.222 189.776 270.106 180.902C272.989 172.027 271.712 160.094 253.994 154.337C236.276 148.58 195.954 146.997 193.07 155.871Z" fill="#FFCB1D"/>
<path d="M186.168 165.371C178.619 170.856 192.585 208.716 203.536 223.788C214.486 238.86 226.229 236.387 233.779 230.902C241.328 225.417 247.309 215.012 236.359 199.94C225.408 184.868 193.717 159.886 186.168 165.371Z" fill="#FFCB1D"/>
<path d="M158.158 141.205C162.478 132.934 133.122 105.246 116.608 96.6219C100.094 87.9982 90.6783 95.4392 86.3588 103.711C82.0393 111.982 81.3136 123.961 97.8275 132.585C114.341 141.209 153.839 149.477 158.158 141.205Z" fill="#FFF06B"/>
<path d="M178.16 131.265C187.362 132.817 204.623 96.3413 207.722 77.9708C210.82 59.6003 200.834 52.9449 191.632 51.3929C182.431 49.8409 170.814 52.8524 167.715 71.2229C164.617 89.5934 168.959 129.713 178.16 131.265Z" fill="#FFF06B"/>
<path d="M188.569 136.7C195.101 143.364 230.506 124.001 243.81 110.96C257.115 97.9196 252.948 86.6655 246.416 80.0014C239.884 73.3373 228.715 68.9454 215.411 81.9862C202.106 95.027 182.037 130.036 188.569 136.7Z" fill="#FFF06B"/>
<path d="M156.205 152.784C154.838 143.553 114.814 138.409 96.3848 141.138C77.9559 143.868 74.7122 155.423 76.0795 164.653C77.4469 173.884 83.9008 184.002 102.33 181.272C120.759 178.542 157.573 162.015 156.205 152.784Z" fill="#FFF06B"/>
<path d="M161.431 163.3C154.899 156.636 119.495 175.999 106.19 189.04C92.8852 202.08 97.0525 213.335 103.584 219.999C110.116 226.663 121.285 231.055 134.589 218.014C147.894 204.973 167.963 169.964 161.431 163.3Z" fill="#FFF06B"/>
<path d="M166.544 132.985C174.901 128.832 167.425 89.1774 159.134 72.494C150.843 55.8106 138.852 56.2961 130.496 60.449C122.139 64.6019 114.511 73.8665 122.802 90.5499C131.093 107.233 158.188 137.138 166.544 132.985Z" fill="#FFF06B"/>
<path d="M171.84 168.735C162.639 167.183 145.377 203.659 142.279 222.029C139.18 240.4 149.166 247.055 158.368 248.607C167.569 250.159 179.186 247.148 182.285 228.777C185.383 210.407 181.041 170.287 171.84 168.735Z" fill="#FFF06B"/>
<path d="M193.795 147.216C195.162 156.447 235.186 161.592 253.615 158.862C272.044 156.132 275.288 144.578 273.921 135.347C272.553 126.116 266.099 115.998 247.67 118.728C229.241 121.458 192.427 137.985 193.795 147.216Z" fill="#FFF06B"/>
<path d="M191.842 158.795C187.522 167.066 216.878 194.755 233.392 203.378C249.906 212.002 259.322 204.561 263.641 196.289C267.961 188.018 268.686 176.039 252.173 167.415C235.659 158.792 196.161 150.524 191.842 158.795Z" fill="#FFF06B"/>
<path d="M183.456 167.015C175.1 171.168 182.575 210.823 190.866 227.506C199.157 244.189 211.148 243.704 219.504 239.551C227.861 235.398 235.489 226.134 227.198 209.45C218.907 192.767 191.812 162.862 183.456 167.015Z" fill="#FFF06B"/>
<path d="M158.158 141.205C162.478 132.934 133.122 105.246 116.608 96.6219C100.094 87.9982 90.6783 95.4392 86.3588 103.711C82.0393 111.982 81.3136 123.961 97.8275 132.585C114.341 141.209 153.839 149.477 158.158 141.205Z" fill="#FFF06B"/>
<path d="M178.16 131.265C187.362 132.817 204.623 96.3413 207.722 77.9708C210.82 59.6003 200.834 52.9449 191.632 51.3929C182.431 49.8409 170.814 52.8524 167.715 71.2229C164.617 89.5934 168.959 129.713 178.16 131.265Z" fill="#FFF06B"/>
<path d="M188.569 136.7C195.101 143.364 230.506 124.001 243.81 110.96C257.115 97.9196 252.948 86.6655 246.416 80.0014C239.884 73.3373 228.715 68.9454 215.411 81.9862C202.106 95.027 182.037 130.036 188.569 136.7Z" fill="#FFF06B"/>
<path d="M156.205 152.784C154.838 143.553 114.814 138.409 96.3848 141.138C77.9559 143.868 74.7122 155.423 76.0795 164.653C77.4469 173.884 83.9008 184.002 102.33 181.272C120.759 178.542 157.573 162.015 156.205 152.784Z" fill="#FFF06B"/>
<path d="M161.431 163.3C154.899 156.636 119.495 175.999 106.19 189.04C92.8852 202.08 97.0525 213.335 103.584 219.999C110.116 226.663 121.285 231.055 134.589 218.014C147.894 204.973 167.963 169.964 161.431 163.3Z" fill="#FFF06B"/>
<path d="M166.544 132.985C174.901 128.832 167.425 89.1774 159.134 72.494C150.843 55.8106 138.852 56.2961 130.496 60.449C122.139 64.6019 114.511 73.8665 122.802 90.5499C131.093 107.233 158.188 137.138 166.544 132.985Z" fill="#FFF06B"/>
<path d="M171.84 168.735C162.639 167.183 145.377 203.659 142.279 222.029C139.18 240.4 149.166 247.055 158.368 248.607C167.569 250.159 179.186 247.148 182.285 228.777C185.383 210.407 181.041 170.287 171.84 168.735Z" fill="#FFF06B"/>
<path d="M193.795 147.216C195.162 156.447 235.186 161.592 253.615 158.862C272.044 156.132 275.288 144.578 273.921 135.347C272.553 126.116 266.099 115.998 247.67 118.728C229.241 121.458 192.427 137.985 193.795 147.216Z" fill="#FFF06B"/>
<path d="M191.842 158.795C187.522 167.066 216.878 194.755 233.392 203.378C249.906 212.002 259.322 204.561 263.641 196.289C267.961 188.018 268.686 176.039 252.173 167.415C235.659 158.792 196.161 150.524 191.842 158.795Z" fill="#FFF06B"/>
<path d="M183.456 167.015C175.1 171.168 182.575 210.823 190.866 227.506C199.157 244.189 211.148 243.704 219.504 239.551C227.861 235.398 235.489 226.134 227.198 209.45C218.907 192.767 191.812 162.862 183.456 167.015Z" fill="#FFF06B"/>
<circle cx="175" cy="150" r="42" fill="#F2AA71"/>
<circle cx="154.5" cy="144.5" r="3.5" fill="#63391A"/>
<circle cx="193.5" cy="144.5" r="3.5" fill="#63391A"/>
<ellipse cx="199" cy="150" rx="7" ry="6" fill="#F2655D"/>
<ellipse cx="150" cy="150" rx="7" ry="6" fill="#F2655D"/>
<path d="M179 156C179 156.788 178.909 157.568 178.734 158.296C178.558 159.024 178.3 159.685 177.975 160.243C177.65 160.8 177.264 161.242 176.839 161.543C176.415 161.845 175.96 162 175.5 162C175.04 162 174.585 161.845 174.161 161.543C173.736 161.242 173.35 160.8 173.025 160.243C172.7 159.685 172.442 159.024 172.266 158.296C172.091 157.568 172 156.788 172 156L175.5 156L179 156Z" fill="#63391A"/>
</svg>
