<svg width="46" height="43" viewBox="0 0 46 43" fill="none" xmlns="http://www.w3.org/2000/svg">
<path d="M32.4175 35.1437C29.6053 34.1586 34.2441 30.4296 34.8207 30.2458C35.3973 30.0619 36.8995 30.1712 37.9775 30.842C39.0554 31.5127 40.4936 33.3532 40.4936 33.3532C40.4936 33.3532 40.2604 31.9626 39.7852 31.0837C39.3099 30.2049 38.0596 28.8522 38.0596 28.8522C38.0596 28.8522 40.5463 28.8414 41.7196 29.6897C42.7517 30.4359 43.1784 31.281 43.4556 32.5315C43.8714 34.4079 43.4731 35.8395 42.002 37.2085C40.5309 38.5776 37.3778 38.7648 37.3778 38.7648C37.3778 38.7648 38.0303 36.1489 37.4745 34.6022C36.9289 33.0837 36.4615 31.4879 34.7787 31.371C33.4188 31.2766 32.6451 34.1303 32.4175 35.1437Z" fill="#2E9021" stroke="#2E9021"/>
<path d="M12.5826 36.1037C15.6404 35.8512 12.0834 30.6504 11.5636 30.2974C11.0439 29.9444 9.52623 29.6419 8.27274 30.0463C7.01925 30.4506 5.08428 31.9823 5.08428 31.9823C5.08428 31.9823 5.70134 30.5881 6.41594 29.7979C7.13055 29.0078 8.74402 27.9358 8.74402 27.9358C8.74402 27.9358 6.28517 27.2338 4.88791 27.798C3.65887 28.2943 3.00177 29.0625 2.38008 30.2976C1.44729 32.1508 1.44403 33.7635 2.52028 35.6084C3.59652 37.4534 6.66616 38.5254 6.66616 38.5254C6.66616 38.5254 6.74666 35.5997 7.72638 34.1312C8.68828 32.6895 9.59417 31.1449 11.2927 31.4897C12.6653 31.7683 12.6387 34.9772 12.5826 36.1037Z" fill="#2E9021" stroke="#2E9021"/>
<path d="M19.9232 19.5171C20.4142 18.006 14.7013 14.1886 11.6844 13.2084C8.66749 12.2281 7.29736 13.7441 6.80637 15.2552C6.31537 16.7663 6.53277 18.7981 9.54966 19.7783C12.5665 20.7586 19.4322 21.0282 19.9232 19.5171Z" fill="#FFCB1D"/>
<path d="M23 17.2818C24.5889 17.2818 26.4541 10.6688 26.4541 7.49662C26.4541 4.32448 24.5889 3.48987 23 3.48987C21.4112 3.48987 19.546 4.32448 19.546 7.49662C19.546 10.6688 21.4112 17.2818 23 17.2818Z" fill="#FFCB1D"/>
<path d="M24.9016 17.8996C26.187 18.8335 31.583 14.5798 33.4476 12.0135C35.3121 9.44717 34.2937 7.67563 33.0083 6.74171C31.7229 5.8078 29.7233 5.3867 27.8588 7.95301C25.9943 10.5193 23.6162 16.9657 24.9016 17.8996Z" fill="#FFCB1D"/>
<path d="M19.9232 21.5166C19.4322 20.0055 12.5665 20.2752 9.54966 21.2554C6.53277 22.2357 6.31537 24.2675 6.80637 25.7786C7.29736 27.2897 8.66749 28.8057 11.6844 27.8254C14.7013 26.8452 20.4142 23.0277 19.9232 21.5166Z" fill="#FFCB1D"/>
<path d="M21.0984 23.1342C19.813 22.2003 14.417 26.454 12.5525 29.0203C10.6879 31.5866 11.7063 33.3581 12.9917 34.2921C14.2772 35.226 16.2767 35.6471 18.1412 33.0808C20.0057 30.5144 22.3838 24.0681 21.0984 23.1342Z" fill="#FFCB1D"/>
<path d="M21.0984 17.8996C22.3838 16.9657 20.0057 10.5193 18.1412 7.95301C16.2767 5.3867 14.2772 5.8078 12.9917 6.74171C11.7063 7.67563 10.6879 9.44717 12.5525 12.0135C14.417 14.5798 19.813 18.8335 21.0984 17.8996Z" fill="#FFCB1D"/>
<path d="M23 23.7521C21.4112 23.7521 19.546 30.3651 19.546 33.5372C19.546 36.7094 21.4112 37.544 23 37.544C24.5889 37.544 26.4541 36.7094 26.4541 33.5372C26.4541 30.3651 24.5889 23.7521 23 23.7521Z" fill="#FFCB1D"/>
<path d="M26.0768 19.5171C26.5678 21.0282 33.4335 20.7586 36.4504 19.7783C39.4672 18.7981 39.6846 16.7663 39.1936 15.2552C38.7027 13.7441 37.3325 12.2281 34.3156 13.2084C31.2988 14.1886 25.5858 18.006 26.0768 19.5171Z" fill="#FFCB1D"/>
<path d="M26.0768 21.5166C25.5858 23.0277 31.2988 26.8452 34.3156 27.8254C37.3325 28.8057 38.7027 27.2897 39.1936 25.7786C39.6846 24.2675 39.4672 22.2357 36.4504 21.2554C33.4335 20.2752 26.5678 20.0055 26.0768 21.5166Z" fill="#FFCB1D"/>
<path d="M24.9016 23.1342C23.6162 24.0681 25.9943 30.5144 27.8588 33.0808C29.7233 35.6471 31.7229 35.226 33.0083 34.2921C34.2937 33.3581 35.3121 31.5866 33.4476 29.0203C31.583 26.454 26.187 22.2003 24.9016 23.1342Z" fill="#FFCB1D"/>
<path d="M20.1324 19.0194C20.8679 17.611 15.8694 12.8966 13.0576 11.4282C10.2457 9.95986 8.64255 11.2268 7.90707 12.6352C7.17159 14.0436 7.04803 16.0833 9.85986 17.5516C12.6717 19.02 19.3969 20.4278 20.1324 19.0194Z" fill="#FFF06B"/>
<path d="M23.5381 17.3269C25.1048 17.5911 28.0439 11.3804 28.5715 8.25249C29.0991 5.12454 27.3987 3.99133 25.832 3.72707C24.2653 3.46281 22.2872 3.97558 21.7596 7.10353C21.232 10.2315 21.9714 17.0626 23.5381 17.3269Z" fill="#FFF06B"/>
<path d="M25.3104 18.2525C26.4226 19.3872 32.4509 16.0902 34.7163 13.8697C36.9817 11.6493 36.2722 9.733 35.16 8.5983C34.0478 7.4636 32.1461 6.71581 29.8807 8.93626C27.6154 11.1567 24.1982 17.1178 25.3104 18.2525Z" fill="#FFF06B"/>
<path d="M19.7998 20.991C19.567 19.4192 12.7521 18.5432 9.61418 19.008C6.47628 19.4729 5.92398 21.4402 6.1568 23.0119C6.38962 24.5836 7.48853 26.3064 10.6264 25.8416C13.7643 25.3767 20.0326 22.5627 19.7998 20.991Z" fill="#FFF06B"/>
<path d="M20.6896 22.7814C19.5774 21.6467 13.5491 24.9437 11.2837 27.1642C9.01831 29.3847 9.72787 31.3009 10.8401 32.4356C11.9522 33.5703 13.8539 34.3181 16.1193 32.0976C18.3847 29.8772 21.8018 23.9161 20.6896 22.7814Z" fill="#FFF06B"/>
<path d="M21.5602 17.6199C22.9831 16.9128 21.7103 10.1607 20.2986 7.32C18.8869 4.47932 16.8451 4.56199 15.4223 5.2691C13.9994 5.97622 12.7006 7.5537 14.1123 10.3944C15.524 13.2351 20.1374 18.327 21.5602 17.6199Z" fill="#FFF06B"/>
<path d="M22.462 23.7071C20.8952 23.4428 17.9561 29.6535 17.4285 32.7814C16.901 35.9094 18.6013 37.0426 20.1681 37.3068C21.7348 37.5711 23.7128 37.0583 24.2404 33.9304C24.768 30.8024 24.0287 23.9713 22.462 23.7071Z" fill="#FFF06B"/>
<path d="M26.2002 20.0429C26.4331 21.6146 33.248 22.4906 36.3859 22.0258C39.5238 21.561 40.0761 19.5937 39.8433 18.022C39.6104 16.4502 38.5115 14.7275 35.3736 15.1923C32.2357 15.6571 25.9674 18.4712 26.2002 20.0429Z" fill="#FFF06B"/>
<path d="M25.8677 22.0144C25.1322 23.4228 30.1307 28.1373 32.9425 29.6056C35.7543 31.074 37.3575 29.807 38.093 28.3986C38.8285 26.9902 38.952 24.9506 36.1402 23.4822C33.3284 22.0139 26.6031 20.6061 25.8677 22.0144Z" fill="#FFF06B"/>
<path d="M24.4398 23.414C23.017 24.1211 24.2898 30.8732 25.7015 33.7139C27.1132 36.5546 29.1549 36.4719 30.5778 35.7648C32.0006 35.0577 33.2995 33.4802 31.8878 30.6395C30.476 27.7988 25.8627 22.7069 24.4398 23.414Z" fill="#FFF06B"/>
<path d="M20.1324 19.0194C20.8679 17.611 15.8694 12.8966 13.0576 11.4282C10.2457 9.95986 8.64255 11.2268 7.90707 12.6352C7.17159 14.0436 7.04803 16.0833 9.85986 17.5516C12.6717 19.02 19.3969 20.4278 20.1324 19.0194Z" fill="#FFF06B"/>
<path d="M23.5381 17.3269C25.1048 17.5911 28.0439 11.3804 28.5715 8.25249C29.0991 5.12454 27.3987 3.99133 25.832 3.72707C24.2653 3.46281 22.2872 3.97558 21.7596 7.10353C21.232 10.2315 21.9714 17.0626 23.5381 17.3269Z" fill="#FFF06B"/>
<path d="M25.3104 18.2525C26.4226 19.3872 32.4509 16.0902 34.7163 13.8697C36.9817 11.6493 36.2722 9.733 35.16 8.5983C34.0478 7.4636 32.1461 6.71581 29.8807 8.93626C27.6154 11.1567 24.1982 17.1178 25.3104 18.2525Z" fill="#FFF06B"/>
<path d="M19.7998 20.991C19.567 19.4192 12.7521 18.5432 9.61418 19.008C6.47628 19.4729 5.92398 21.4402 6.1568 23.0119C6.38962 24.5836 7.48853 26.3064 10.6264 25.8416C13.7643 25.3767 20.0326 22.5627 19.7998 20.991Z" fill="#FFF06B"/>
<path d="M20.6896 22.7814C19.5774 21.6467 13.5491 24.9437 11.2837 27.1642C9.01831 29.3847 9.72787 31.3009 10.8401 32.4356C11.9522 33.5703 13.8539 34.3181 16.1193 32.0976C18.3847 29.8772 21.8018 23.9161 20.6896 22.7814Z" fill="#FFF06B"/>
<path d="M21.5602 17.6199C22.9831 16.9128 21.7103 10.1607 20.2986 7.32C18.8869 4.47932 16.8451 4.56199 15.4223 5.2691C13.9994 5.97622 12.7006 7.5537 14.1123 10.3944C15.524 13.2351 20.1374 18.327 21.5602 17.6199Z" fill="#FFF06B"/>
<path d="M22.462 23.7071C20.8952 23.4428 17.9561 29.6535 17.4285 32.7814C16.901 35.9094 18.6013 37.0426 20.1681 37.3068C21.7348 37.5711 23.7128 37.0583 24.2404 33.9304C24.768 30.8024 24.0287 23.9713 22.462 23.7071Z" fill="#FFF06B"/>
<path d="M26.2002 20.0429C26.4331 21.6146 33.248 22.4906 36.3859 22.0258C39.5238 21.561 40.0761 19.5937 39.8433 18.022C39.6104 16.4502 38.5115 14.7275 35.3736 15.1923C32.2357 15.6571 25.9674 18.4712 26.2002 20.0429Z" fill="#FFF06B"/>
<path d="M25.8677 22.0144C25.1322 23.4228 30.1307 28.1373 32.9425 29.6056C35.7543 31.074 37.3575 29.807 38.093 28.3986C38.8285 26.9902 38.952 24.9506 36.1402 23.4822C33.3284 22.0139 26.6031 20.6061 25.8677 22.0144Z" fill="#FFF06B"/>
<path d="M24.4398 23.414C23.017 24.1211 24.2898 30.8732 25.7015 33.7139C27.1132 36.5546 29.1549 36.4719 30.5778 35.7648C32.0006 35.0577 33.2995 33.4802 31.8878 30.6395C30.476 27.7988 25.8627 22.7069 24.4398 23.414Z" fill="#FFF06B"/>
<ellipse cx="23" cy="20.517" rx="7.15135" ry="7.15135" fill="#FFB581"/>
<ellipse cx="19.5095" cy="19.5804" rx="0.595946" ry="0.595946" fill="#623516"/>
<ellipse cx="26.15" cy="19.5804" rx="0.595946" ry="0.595946" fill="#623516"/>
<ellipse cx="27.0865" cy="20.517" rx="1.19189" ry="1.02162" fill="#F2655D"/>
<ellipse cx="18.7432" cy="20.517" rx="1.19189" ry="1.02162" fill="#F2655D"/>
<path d="M23.6811 21.5386C23.6811 21.6728 23.6657 21.8056 23.6357 21.9295C23.6058 22.0535 23.5619 22.1661 23.5065 22.261C23.4512 22.3559 23.3855 22.4311 23.3132 22.4824C23.2409 22.5338 23.1634 22.5602 23.0851 22.5602C23.0069 22.5602 22.9294 22.5338 22.8571 22.4824C22.7848 22.4311 22.7191 22.3559 22.6637 22.261C22.6084 22.1661 22.5645 22.0535 22.5346 21.9295C22.5046 21.8056 22.4892 21.6728 22.4892 21.5386L23.0851 21.5386L23.6811 21.5386Z" fill="#623516"/>
</svg>
