<svg width="209" height="47" viewBox="0 0 209 47" fill="none" xmlns="http://www.w3.org/2000/svg">
<path d="M7.068 39C5.46 38.76 4.416 38.028 3.936 36.804C3.456 35.556 3.552 33.984 4.224 32.088L8.976 18.588C9.408 17.34 9.9 16.272 10.452 15.384C11.028 14.496 11.736 13.812 12.576 13.332C13.44 12.852 14.508 12.612 15.78 12.612C17.7 12.612 19.14 13.14 20.1 14.196C21.084 15.252 21.9 16.716 22.548 18.588L27.264 32.088C27.936 33.984 28.056 35.556 27.624 36.804C27.216 38.028 26.196 38.76 24.564 39C23.244 39.168 22.092 39.012 21.108 38.532C20.148 38.052 19.572 37.272 19.38 36.192C19.236 35.472 19.212 34.872 19.308 34.392C19.428 33.912 19.536 33.528 19.632 33.24C19.704 33 19.704 32.772 19.632 32.556C19.584 32.316 19.404 32.196 19.092 32.196H12.396C12.084 32.196 11.892 32.316 11.82 32.556C11.772 32.772 11.796 33 11.892 33.24C11.988 33.528 12.084 33.912 12.18 34.392C12.276 34.872 12.264 35.472 12.144 36.192C11.952 37.272 11.388 38.052 10.452 38.532C9.516 39.012 8.388 39.168 7.068 39ZM18.408 27.156L16.536 21.288C16.488 21.048 16.404 20.868 16.284 20.748C16.188 20.604 16.02 20.532 15.78 20.532C15.54 20.532 15.36 20.604 15.24 20.748C15.144 20.868 15.06 21.048 14.988 21.288L13.152 27.156H18.408ZM41.8553 39.108C39.9833 39.108 38.3273 38.724 36.8873 37.956C35.4473 37.164 34.3193 36.048 33.5033 34.608C32.6873 33.168 32.2793 31.476 32.2793 29.532C32.2793 27.588 32.6873 25.896 33.5033 24.456C34.3193 23.016 35.4473 21.9 36.8873 21.108C38.3513 20.316 40.0313 19.92 41.9273 19.92C43.4153 19.92 44.7233 20.076 45.8513 20.388C47.0033 20.7 47.9033 21.168 48.5513 21.792C49.2233 22.416 49.5593 23.196 49.5593 24.132C49.5593 25.26 49.2713 26.148 48.6953 26.796C48.1193 27.42 47.2913 27.732 46.2113 27.732C45.4913 27.732 44.7713 27.624 44.0513 27.408C43.3553 27.192 42.4553 27.084 41.3513 27.084C40.4393 27.084 39.6713 27.228 39.0473 27.516C38.4233 27.804 38.1113 28.332 38.1113 29.1C38.1113 29.892 38.4233 30.468 39.0473 30.828C39.6713 31.164 40.4393 31.332 41.3513 31.332C42.0953 31.332 42.7193 31.26 43.2233 31.116C43.7273 30.972 44.2073 30.828 44.6633 30.684C45.1193 30.54 45.6353 30.468 46.2113 30.468C47.4353 30.468 48.3353 30.828 48.9113 31.548C49.5113 32.244 49.8113 33.144 49.8113 34.248C49.8113 35.184 49.4633 36.024 48.7673 36.768C48.0713 37.488 47.1233 38.064 45.9233 38.496C44.7233 38.904 43.3673 39.108 41.8553 39.108ZM54.3405 29.64C54.3405 27.744 54.7125 26.076 55.4565 24.636C56.2245 23.196 57.3045 22.068 58.6965 21.252C60.1125 20.436 61.7925 20.028 63.7365 20.028C65.2485 20.028 66.6045 20.304 67.8045 20.856C69.0285 21.408 69.9885 22.152 70.6845 23.088C71.3805 24 71.7285 25.008 71.7285 26.112C71.7285 27.264 71.3925 28.08 70.7205 28.56C70.0485 29.04 69.0525 29.28 67.7325 29.28H60.1725C60.1725 29.904 60.4125 30.42 60.8925 30.828C61.3965 31.236 62.2365 31.44 63.4125 31.44C64.0125 31.44 64.5645 31.38 65.0685 31.26C65.5965 31.14 66.1245 31.032 66.6525 30.936C67.2045 30.816 67.8165 30.756 68.4885 30.756C69.4485 30.756 70.2405 31.104 70.8645 31.8C71.4885 32.472 71.8005 33.408 71.8005 34.608C71.8005 36.024 71.0685 37.128 69.6045 37.92C68.1645 38.712 66.2685 39.108 63.9165 39.108C62.2605 39.108 60.7005 38.784 59.2365 38.136C57.7965 37.488 56.6205 36.468 55.7085 35.076C54.7965 33.66 54.3405 31.848 54.3405 29.64ZM66.0045 28.092C66.3645 28.092 66.4845 27.924 66.3645 27.588C66.2685 27.252 65.9805 26.904 65.5005 26.544C65.0205 26.184 64.3245 26.004 63.4125 26.004C62.3565 26.004 61.5645 26.232 61.0365 26.688C60.5325 27.144 60.2805 27.612 60.2805 28.092H66.0045ZM86.1057 39.468C84.4497 39.468 82.9137 39.312 81.4977 39C80.1057 38.664 78.9897 38.148 78.1497 37.452C77.3097 36.732 76.8897 35.784 76.8897 34.608C76.8897 33.576 77.2017 32.724 77.8257 32.052C78.4497 31.38 79.2777 31.044 80.3097 31.044C80.9577 31.044 81.6057 31.152 82.2537 31.368C82.9257 31.56 83.6337 31.752 84.3777 31.944C85.1217 32.136 85.9257 32.232 86.7897 32.232C87.5577 32.232 88.0737 32.196 88.3377 32.124C88.6017 32.028 88.7337 31.86 88.7337 31.62C88.7337 31.332 88.5657 31.14 88.2297 31.044C87.9177 30.948 87.3777 30.828 86.6097 30.684L84.0177 30.18C82.9377 29.964 81.8817 29.688 80.8497 29.352C79.8417 28.992 79.0017 28.464 78.3297 27.768C77.6817 27.072 77.3577 26.124 77.3577 24.924C77.3577 23.292 78.0777 22.02 79.5177 21.108C80.9817 20.196 83.0937 19.74 85.8537 19.74C87.4377 19.74 88.8537 19.896 90.1017 20.208C91.3737 20.52 92.3817 20.988 93.1257 21.612C93.8697 22.212 94.2417 22.968 94.2417 23.88C94.2657 24.864 94.0017 25.656 93.4497 26.256C92.8977 26.856 92.2017 27.156 91.3617 27.156C90.7617 27.156 90.1497 27.084 89.5257 26.94C88.9257 26.772 88.2657 26.604 87.5457 26.436C86.8497 26.244 86.0457 26.136 85.1337 26.112C84.4857 26.064 83.9577 26.1 83.5497 26.22C83.1417 26.34 82.9377 26.532 82.9377 26.796C82.9377 27.084 83.1777 27.288 83.6577 27.408C84.1377 27.504 84.8577 27.636 85.8177 27.804L88.3737 28.272C89.9337 28.536 91.1697 28.872 92.0817 29.28C93.0177 29.664 93.6897 30.204 94.0977 30.9C94.5057 31.596 94.7097 32.556 94.7097 33.78C94.7097 35.052 94.3377 36.12 93.5937 36.984C92.8737 37.824 91.8657 38.448 90.5697 38.856C89.2737 39.264 87.7857 39.468 86.1057 39.468Z" fill="#FFEEDF"/>
<path d="M111.343 39.108C109.999 39.108 108.643 38.976 107.275 38.712C105.931 38.424 104.683 38.016 103.531 37.488C102.403 36.936 101.491 36.276 100.795 35.508C100.099 34.716 99.7511 33.804 99.7511 32.772C99.7511 31.452 100.171 30.396 101.011 29.604C101.851 28.812 102.835 28.44 103.963 28.488C104.851 28.512 105.739 28.704 106.627 29.064C107.515 29.4 108.415 29.736 109.327 30.072C110.263 30.408 111.199 30.576 112.135 30.576C113.071 30.576 113.719 30.456 114.079 30.216C114.439 29.976 114.619 29.652 114.619 29.244C114.619 28.764 114.367 28.368 113.863 28.056C113.359 27.744 112.723 27.504 111.955 27.336L110.191 26.904C108.367 26.472 106.735 25.992 105.295 25.464C103.855 24.912 102.715 24.192 101.875 23.304C101.059 22.392 100.651 21.18 100.651 19.668C100.651 18.012 101.107 16.668 102.019 15.636C102.931 14.58 104.167 13.812 105.727 13.332C107.287 12.852 109.027 12.612 110.947 12.612C112.915 12.612 114.643 12.816 116.131 13.224C117.619 13.632 118.771 14.22 119.587 14.988C120.427 15.756 120.847 16.692 120.847 17.796C120.847 18.972 120.523 19.896 119.875 20.568C119.251 21.216 118.411 21.54 117.355 21.54C116.659 21.54 115.927 21.42 115.159 21.18C114.415 20.94 113.623 20.712 112.783 20.496C111.967 20.256 111.091 20.136 110.155 20.136C109.315 20.136 108.679 20.268 108.247 20.532C107.815 20.772 107.599 21.096 107.599 21.504C107.599 22.008 107.887 22.38 108.463 22.62C109.039 22.86 109.987 23.148 111.307 23.484L113.323 23.952C114.979 24.36 116.431 24.852 117.679 25.428C118.927 26.004 119.899 26.76 120.595 27.696C121.291 28.632 121.639 29.856 121.639 31.368C121.639 33.192 121.207 34.68 120.343 35.832C119.479 36.96 118.279 37.788 116.743 38.316C115.207 38.844 113.407 39.108 111.343 39.108ZM167.298 16.284C167.298 15.18 167.634 14.328 168.306 13.728C169.002 13.104 169.89 12.792 170.97 12.792C172.098 12.792 172.998 13.104 173.67 13.728C174.342 14.328 174.678 15.18 174.678 16.284V31.62C174.678 32.076 174.798 32.4 175.038 32.592C175.278 32.76 175.674 32.688 176.226 32.376C177.426 31.68 178.494 31.128 179.43 30.72C180.366 30.288 181.398 30.072 182.526 30.072C184.086 30.072 185.262 30.48 186.054 31.296C186.846 32.112 187.242 33.18 187.242 34.5C187.242 35.916 186.81 37.008 185.946 37.776C185.106 38.544 183.75 38.928 181.878 38.928H174.462C172.878 38.928 171.558 38.748 170.502 38.388C169.446 38.004 168.642 37.32 168.09 36.336C167.562 35.352 167.298 33.924 167.298 32.052V16.284Z" fill="#FFFD69"/>
<path d="M154.418 39.1437C151.605 38.1586 156.244 34.4296 156.821 34.2458C157.397 34.0619 158.9 34.1712 159.977 34.842C161.055 35.5127 162.494 37.3532 162.494 37.3532C162.494 37.3532 162.26 35.9626 161.785 35.0837C161.31 34.2049 160.06 32.8522 160.06 32.8522C160.06 32.8522 162.546 32.8414 163.72 33.6897C164.752 34.4359 165.178 35.281 165.456 36.5315C165.871 38.4079 165.473 39.8395 164.002 41.2085C162.531 42.5776 159.378 42.7648 159.378 42.7648C159.378 42.7648 160.03 40.1489 159.475 38.6022C158.929 37.0837 158.462 35.4879 156.779 35.371C155.419 35.2766 154.645 38.1303 154.418 39.1437Z" fill="#2E9021" stroke="#2E9021"/>
<path d="M134.583 40.1037C137.64 39.8512 134.083 34.6504 133.564 34.2974C133.044 33.9444 131.526 33.6419 130.273 34.0463C129.019 34.4506 127.084 35.9823 127.084 35.9823C127.084 35.9823 127.701 34.5881 128.416 33.7979C129.131 33.0078 130.744 31.9358 130.744 31.9358C130.744 31.9358 128.285 31.2338 126.888 31.798C125.659 32.2943 125.002 33.0625 124.38 34.2976C123.447 36.1508 123.444 37.7635 124.52 39.6084C125.597 41.4534 128.666 42.5254 128.666 42.5254C128.666 42.5254 128.747 39.5997 129.726 38.1312C130.688 36.6895 131.594 35.1449 133.293 35.4897C134.665 35.7683 134.639 38.9772 134.583 40.1037Z" fill="#2E9021" stroke="#2E9021"/>
<path d="M141.923 23.5171C142.414 22.006 136.701 18.1886 133.684 17.2084C130.667 16.2281 129.297 17.7441 128.806 19.2552C128.315 20.7663 128.533 22.7981 131.55 23.7783C134.567 24.7586 141.432 25.0282 141.923 23.5171Z" fill="#FFCB1D"/>
<path d="M145 21.2818C146.589 21.2818 148.454 14.6688 148.454 11.4966C148.454 8.32448 146.589 7.48987 145 7.48987C143.411 7.48987 141.546 8.32448 141.546 11.4966C141.546 14.6688 143.411 21.2818 145 21.2818Z" fill="#FFCB1D"/>
<path d="M146.902 21.8996C148.187 22.8335 153.583 18.5798 155.448 16.0135C157.312 13.4472 156.294 11.6756 155.008 10.7417C153.723 9.8078 151.723 9.3867 149.859 11.953C147.994 14.5193 145.616 20.9657 146.902 21.8996Z" fill="#FFCB1D"/>
<path d="M141.923 25.5166C141.432 24.0055 134.567 24.2752 131.55 25.2554C128.533 26.2357 128.315 28.2675 128.806 29.7786C129.297 31.2897 130.667 32.8057 133.684 31.8254C136.701 30.8452 142.414 27.0277 141.923 25.5166Z" fill="#FFCB1D"/>
<path d="M143.098 27.1342C141.813 26.2003 136.417 30.454 134.552 33.0203C132.688 35.5866 133.706 37.3581 134.992 38.2921C136.277 39.226 138.277 39.6471 140.141 37.0808C142.006 34.5144 144.384 28.0681 143.098 27.1342Z" fill="#FFCB1D"/>
<path d="M143.098 21.8996C144.384 20.9657 142.006 14.5193 140.141 11.953C138.277 9.3867 136.277 9.8078 134.992 10.7417C133.706 11.6756 132.688 13.4472 134.552 16.0135C136.417 18.5798 141.813 22.8335 143.098 21.8996Z" fill="#FFCB1D"/>
<path d="M145 27.7521C143.411 27.7521 141.546 34.3651 141.546 37.5372C141.546 40.7094 143.411 41.544 145 41.544C146.589 41.544 148.454 40.7094 148.454 37.5372C148.454 34.3651 146.589 27.7521 145 27.7521Z" fill="#FFCB1D"/>
<path d="M148.077 23.5171C148.568 25.0282 155.433 24.7586 158.45 23.7783C161.467 22.7981 161.685 20.7663 161.194 19.2552C160.703 17.7441 159.333 16.2281 156.316 17.2084C153.299 18.1886 147.586 22.006 148.077 23.5171Z" fill="#FFCB1D"/>
<path d="M148.077 25.5166C147.586 27.0277 153.299 30.8452 156.316 31.8254C159.333 32.8057 160.703 31.2897 161.194 29.7786C161.685 28.2675 161.467 26.2357 158.45 25.2554C155.433 24.2752 148.568 24.0055 148.077 25.5166Z" fill="#FFCB1D"/>
<path d="M146.902 27.1342C145.616 28.0681 147.994 34.5144 149.859 37.0808C151.723 39.6471 153.723 39.226 155.008 38.2921C156.294 37.3581 157.312 35.5866 155.448 33.0203C153.583 30.454 148.187 26.2003 146.902 27.1342Z" fill="#FFCB1D"/>
<path d="M142.132 23.0194C142.868 21.611 137.869 16.8966 135.058 15.4282C132.246 13.9599 130.643 15.2268 129.907 16.6352C129.172 18.0436 129.048 20.0833 131.86 21.5516C134.672 23.02 141.397 24.4278 142.132 23.0194Z" fill="#FFF06B"/>
<path d="M145.538 21.3269C147.105 21.5911 150.044 15.3804 150.572 12.2525C151.099 9.12454 149.399 7.99133 147.832 7.72707C146.265 7.46281 144.287 7.97558 143.76 11.1035C143.232 14.2315 143.971 21.0626 145.538 21.3269Z" fill="#FFF06B"/>
<path d="M147.31 22.2525C148.423 23.3872 154.451 20.0902 156.716 17.8697C158.982 15.6493 158.272 13.733 157.16 12.5983C156.048 11.4636 154.146 10.7158 151.881 12.9363C149.615 15.1567 146.198 21.1178 147.31 22.2525Z" fill="#FFF06B"/>
<path d="M141.8 24.991C141.567 23.4192 134.752 22.5432 131.614 23.008C128.476 23.4729 127.924 25.4402 128.157 27.0119C128.39 28.5836 129.489 30.3064 132.626 29.8416C135.764 29.3767 142.033 26.5627 141.8 24.991Z" fill="#FFF06B"/>
<path d="M142.69 26.7814C141.577 25.6467 135.549 28.9437 133.284 31.1642C131.018 33.3847 131.728 35.3009 132.84 36.4356C133.952 37.5703 135.854 38.3181 138.119 36.0976C140.385 33.8772 143.802 27.9161 142.69 26.7814Z" fill="#FFF06B"/>
<path d="M143.56 21.6199C144.983 20.9128 143.71 14.1607 142.299 11.32C140.887 8.47932 138.845 8.56199 137.422 9.2691C135.999 9.97622 134.701 11.5537 136.112 14.3944C137.524 17.2351 142.137 22.327 143.56 21.6199Z" fill="#FFF06B"/>
<path d="M144.462 27.7071C142.895 27.4428 139.956 33.6535 139.429 36.7814C138.901 39.9094 140.601 41.0426 142.168 41.3068C143.735 41.5711 145.713 41.0583 146.24 37.9304C146.768 34.8024 146.029 27.9713 144.462 27.7071Z" fill="#FFF06B"/>
<path d="M148.2 24.0429C148.433 25.6146 155.248 26.4906 158.386 26.0258C161.524 25.561 162.076 23.5937 161.843 22.022C161.61 20.4502 160.512 18.7275 157.374 19.1923C154.236 19.6571 147.967 22.4712 148.2 24.0429Z" fill="#FFF06B"/>
<path d="M147.868 26.0144C147.132 27.4228 152.131 32.1373 154.942 33.6056C157.754 35.074 159.358 33.807 160.093 32.3986C160.828 30.9902 160.952 28.9506 158.14 27.4822C155.328 26.0139 148.603 24.6061 147.868 26.0144Z" fill="#FFF06B"/>
<path d="M146.44 27.414C145.017 28.1211 146.29 34.8732 147.701 37.7139C149.113 40.5546 151.155 40.4719 152.578 39.7648C154.001 39.0577 155.299 37.4802 153.888 34.6395C152.476 31.7988 147.863 26.7069 146.44 27.414Z" fill="#FFF06B"/>
<path d="M142.132 23.0194C142.868 21.611 137.869 16.8966 135.058 15.4282C132.246 13.9599 130.643 15.2268 129.907 16.6352C129.172 18.0436 129.048 20.0833 131.86 21.5516C134.672 23.02 141.397 24.4278 142.132 23.0194Z" fill="#FFF06B"/>
<path d="M145.538 21.3269C147.105 21.5911 150.044 15.3804 150.572 12.2525C151.099 9.12454 149.399 7.99133 147.832 7.72707C146.265 7.46281 144.287 7.97558 143.76 11.1035C143.232 14.2315 143.971 21.0626 145.538 21.3269Z" fill="#FFF06B"/>
<path d="M147.31 22.2525C148.423 23.3872 154.451 20.0902 156.716 17.8697C158.982 15.6493 158.272 13.733 157.16 12.5983C156.048 11.4636 154.146 10.7158 151.881 12.9363C149.615 15.1567 146.198 21.1178 147.31 22.2525Z" fill="#FFF06B"/>
<path d="M141.8 24.991C141.567 23.4192 134.752 22.5432 131.614 23.008C128.476 23.4729 127.924 25.4402 128.157 27.0119C128.39 28.5836 129.489 30.3064 132.626 29.8416C135.764 29.3767 142.033 26.5627 141.8 24.991Z" fill="#FFF06B"/>
<path d="M142.69 26.7814C141.577 25.6467 135.549 28.9437 133.284 31.1642C131.018 33.3847 131.728 35.3009 132.84 36.4356C133.952 37.5703 135.854 38.3181 138.119 36.0976C140.385 33.8772 143.802 27.9161 142.69 26.7814Z" fill="#FFF06B"/>
<path d="M143.56 21.6199C144.983 20.9128 143.71 14.1607 142.299 11.32C140.887 8.47932 138.845 8.56199 137.422 9.2691C135.999 9.97622 134.701 11.5537 136.112 14.3944C137.524 17.2351 142.137 22.327 143.56 21.6199Z" fill="#FFF06B"/>
<path d="M144.462 27.7071C142.895 27.4428 139.956 33.6535 139.429 36.7814C138.901 39.9094 140.601 41.0426 142.168 41.3068C143.735 41.5711 145.713 41.0583 146.24 37.9304C146.768 34.8024 146.029 27.9713 144.462 27.7071Z" fill="#FFF06B"/>
<path d="M148.2 24.0429C148.433 25.6146 155.248 26.4906 158.386 26.0258C161.524 25.561 162.076 23.5937 161.843 22.022C161.61 20.4502 160.512 18.7275 157.374 19.1923C154.236 19.6571 147.967 22.4712 148.2 24.0429Z" fill="#FFF06B"/>
<path d="M147.868 26.0144C147.132 27.4228 152.131 32.1373 154.942 33.6056C157.754 35.074 159.358 33.807 160.093 32.3986C160.828 30.9902 160.952 28.9506 158.14 27.4822C155.328 26.0139 148.603 24.6061 147.868 26.0144Z" fill="#FFF06B"/>
<path d="M146.44 27.414C145.017 28.1211 146.29 34.8732 147.701 37.7139C149.113 40.5546 151.155 40.4719 152.578 39.7648C154.001 39.0577 155.299 37.4802 153.888 34.6395C152.476 31.7988 147.863 26.7069 146.44 27.414Z" fill="#FFF06B"/>
<ellipse cx="145" cy="24.517" rx="7.15135" ry="7.15135" fill="#FFB581"/>
<ellipse cx="141.509" cy="23.5804" rx="0.595946" ry="0.595946" fill="#623516"/>
<ellipse cx="148.15" cy="23.5804" rx="0.595946" ry="0.595946" fill="#623516"/>
<ellipse cx="149.086" cy="24.517" rx="1.19189" ry="1.02162" fill="#F2655D"/>
<ellipse cx="140.743" cy="24.517" rx="1.19189" ry="1.02162" fill="#F2655D"/>
<path d="M145.681 25.5386C145.681 25.6728 145.666 25.8056 145.636 25.9295C145.606 26.0535 145.562 26.1661 145.507 26.261C145.451 26.3559 145.386 26.4311 145.313 26.4824C145.241 26.5338 145.163 26.5602 145.085 26.5602C145.007 26.5602 144.929 26.5338 144.857 26.4824C144.785 26.4311 144.719 26.3559 144.664 26.261C144.608 26.1661 144.565 26.0535 144.535 25.9295C144.505 25.8056 144.489 25.6728 144.489 25.5386L145.085 25.5386L145.681 25.5386Z" fill="#623516"/>
</svg>
