<svg width="573" height="547" viewBox="0 0 573 547" fill="none" xmlns="http://www.w3.org/2000/svg">
<g clip-path="url(#clip0_159_747)">
<path d="M383.662 54.6619L321.712 263.447L512.265 158.003L330.604 278.121L544.355 319.832L327.984 295.078L464.915 464.426L315.077 306.383L311.118 524.13L297.923 306.747L154.925 471.006L284.548 296L69.4223 329.912L281.211 279.17L94.6166 166.867L289.473 264.132L218.719 58.1628L305.468 257.923L383.662 54.6619Z" fill="#FBC34B"/>
<path d="M305.821 31.5076L326.45 226.143L467.362 90.3038L358.055 252.664L553.316 239.181L365.22 293.295L523.465 408.478L344.591 329.025L391.775 518.979L305.821 343.136L219.867 518.979L267.051 329.025L88.177 408.478L246.422 293.295L58.3253 239.181L253.586 252.664L144.28 90.3038L285.192 226.143L305.821 31.5076Z" fill="#D27D3F"/>
<circle cx="305.821" cy="282.821" r="48.2368" fill="#FDF1A0"/>
<ellipse cx="274" cy="291.5" rx="12" ry="11.5" fill="#F2655D"/>
<circle cx="337.5" cy="291.5" r="11.5" fill="#F2655D"/>
<circle cx="277" cy="283" r="9" fill="#F6F6F6"/>
<path d="M296 305C296 305 301.466 309 305.762 309C310.286 309 316 305 316 305" stroke="#D1691F" stroke-width="2" stroke-linecap="round"/>
<path d="M339 268C339 266.939 338.579 265.922 337.828 265.172C337.078 264.421 336.061 264 335 264C333.939 264 332.922 264.421 332.172 265.172C331.421 265.922 331 266.939 331 268L335 268H339Z" fill="#D27D3F"/>
<path d="M280 268C280 266.939 279.579 265.922 278.828 265.172C278.078 264.421 277.061 264 276 264C274.939 264 273.922 264.421 273.172 265.172C272.421 265.922 272 266.939 272 268L276 268H280Z" fill="#D27D3F"/>
<ellipse cx="334.5" cy="283" rx="8.5" ry="9" fill="#F6F6F6"/>
<circle cx="275" cy="281" r="5" fill="#D05A36"/>
<circle cx="333" cy="281" r="5" fill="#D05A36"/>
<path d="M306 283L310.33 296.5H301.67L306 283Z" fill="#F2655D"/>
</g>
<defs>
<clipPath id="clip0_159_747">
<rect width="573" height="547" fill="white"/>
</clipPath>
</defs>
</svg>
